<?xml version="1.0" standalone="no"?>
<!DOCTYPE svg PUBLIC "-//W3C//DTD SVG 20010904//EN"
 "http://www.w3.org/TR/2001/REC-SVG-20010904/DTD/svg10.dtd">
<svg version="1.0" xmlns="http://www.w3.org/2000/svg"
 width="64px" height="64" viewBox="0 0 612.000000 612.000000"
 preserveAspectRatio="xMidYMid meet">

<g transform="translate(0.000000,612.000000) scale(0.100000,-0.100000)"
fill="#1E90FF" stroke="none">
<path d="M2222 5346 c-99 -25 -189 -106 -230 -208 -15 -39 -17 -107 -20 -669
l-3 -627 -112 -4 c-132 -5 -172 -20 -214 -80 l-28 -41 0 -781 c0 -813 4 -897
45 -1087 58 -268 195 -529 381 -723 121 -127 223 -203 374 -277 131 -64 251
-102 390 -124 381 -60 720 2 1017 186 271 167 462 423 537 719 l19 75 67 41
c182 111 283 251 304 423 17 132 -26 265 -112 350 l-45 43 19 42 c10 23 24 75
30 115 27 164 -44 326 -183 418 -38 25 -39 28 -31 62 4 20 8 90 8 157 0 119 0
121 -38 196 -43 87 -128 173 -208 211 l-48 22 -3 660 -3 660 -33 67 c-36 75
-88 123 -168 160 l-49 23 -805 2 c-630 1 -816 -1 -858 -11z m1676 -165 c30
-18 49 -39 67 -75 22 -44 25 -62 25 -163 l0 -113 -930 0 -930 0 0 129 c0 116
2 131 23 161 28 42 66 70 108 80 19 5 385 7 814 7 l780 -2 43 -24z m37 -531
c-4 -6 6 -10 22 -10 20 0 24 -3 14 -9 -11 -7 -11 -10 0 -15 11 -5 11 -7 2 -12
-10 -4 -13 -102 -13 -440 0 -281 -4 -442 -10 -455 -8 -15 -7 -19 4 -19 10 0
13 6 10 15 -4 8 -1 15 5 15 6 0 11 -11 11 -25 0 -21 -4 -24 -27 -21 -16 2 -40
8 -55 14 -15 6 -37 9 -49 7 -39 -8 -33 -15 12 -16 l44 -1 -50 -8 c-28 -4 -61
-10 -73 -14 -18 -6 -22 -3 -22 13 0 14 6 21 19 21 11 0 22 4 25 9 3 4 -7 6
-22 4 -21 -4 -24 -2 -12 6 9 6 48 9 95 6 44 -2 74 -2 68 1 -19 8 -19 881 0
887 6 2 3 3 -8 1 -11 -2 -413 -4 -892 -4 l-873 0 0 -405 c0 -355 2 -404 15
-399 8 4 15 1 15 -6 0 -10 3 -10 15 0 9 7 19 10 22 6 4 -4 2 -11 -5 -15 -10
-6 -9 -11 4 -22 16 -12 17 -12 12 2 -3 9 -3 22 2 29 6 10 11 8 19 -8 9 -17 8
-23 -6 -30 -12 -7 -30 -3 -65 17 l-48 26 0 408 c0 224 1 408 3 409 1 2 403 5
892 8 l890 5 -885 5 -885 5 885 5 885 5 -882 3 c-803 2 -883 1 -891 -14 -8
-14 -10 -13 -15 5 l-5 21 905 0 c600 0 902 -3 898 -10z m42 4 c-3 -3 -12 -4
-19 -1 -8 3 -5 6 6 6 11 1 17 -2 13 -5z m-1637 -934 c18 0 60 -43 60 -63 0
-17 -3 -17 -21 7 -28 36 -58 51 -72 37 -8 -8 -7 -11 4 -11 18 0 62 -44 53 -53
-3 -3 -3 -11 1 -17 6 -9 10 -9 16 1 4 7 11 10 14 7 4 -4 1 -13 -6 -21 -12 -12
-16 -11 -31 9 -10 12 -18 27 -18 33 0 6 -7 11 -15 11 -17 0 -34 30 -27 49 3
10 -1 12 -16 8 -19 -4 -20 -3 -11 15 10 18 12 18 34 4 14 -9 29 -16 35 -16z
m-302 -58 c112 -43 202 -136 239 -247 15 -43 18 -107 21 -491 l3 -441 77 -6
c215 -17 448 -126 615 -286 158 -152 256 -333 288 -534 15 -97 32 -121 85
-120 43 1 74 30 74 69 l0 24 349 0 c192 0 363 3 380 6 40 8 40 1 -4 -106 -136
-331 -479 -591 -864 -655 -127 -22 -403 -16 -521 10 -401 89 -697 329 -876
710 -50 107 -86 220 -110 341 -16 80 -18 175 -21 913 -3 666 -1 826 9 833 23
16 198 2 256 -20z m1626 -43 c-47 -21 -65 -23 -41 -5 15 12 13 13 -21 12 -36
-1 -37 -1 -20 -16 19 -15 18 -16 -24 -39 -24 -14 -60 -37 -80 -53 -21 -17 -38
-27 -38 -23 0 4 11 16 26 27 14 11 23 23 20 26 -3 3 -15 -3 -26 -13 -17 -16
-20 -16 -20 -2 0 17 34 32 49 23 11 -7 61 14 61 26 0 4 -6 8 -12 9 -10 0 -10
2 0 6 6 2 12 9 12 14 0 4 -7 6 -15 3 -18 -7 -20 12 -2 19 6 3 47 5 91 4 l78
-1 -38 -17z m535 -61 c70 -70 86 -108 86 -213 0 -73 -5 -100 -24 -143 -48
-106 -200 -215 -364 -260 -94 -25 -267 -22 -331 6 -71 33 -104 59 -126 102
-76 148 63 340 311 431 56 20 83 23 213 24 164 1 176 6 176 67 0 15 4 28 8 28
4 0 27 -19 51 -42z m-1780 -10 c1 8 11 12 29 10 24 -3 27 -7 29 -43 l2 -40
-10 33 c-5 18 -15 32 -21 30 -19 -7 -21 -28 -3 -28 11 0 15 -7 13 -22 -2 -13
2 -22 7 -21 13 2 21 -782 8 -790 -4 -3 -7 109 -5 249 2 239 -7 434 -23 479 -5
16 -5 17 4 5 16 -23 23 -5 8 23 -8 15 -17 24 -20 20 -4 -3 -7 1 -7 11 0 9 -9
34 -20 56 -11 22 -20 47 -20 57 1 12 6 8 15 -12 7 -16 14 -24 14 -17z m964
-80 c4 -10 8 -9 16 2 5 8 12 12 15 9 3 -3 -6 -18 -19 -34 -14 -15 -28 -25 -32
-21 -4 4 -1 12 7 17 11 8 12 12 3 16 -15 5 -17 23 -4 23 5 0 12 -6 14 -12z
m-83 -80 c0 6 5 12 11 12 7 0 5 -10 -5 -25 -9 -13 -16 -30 -16 -37 0 -7 9 1
19 18 11 18 25 35 32 40 7 4 3 -8 -9 -28 -12 -19 -28 -49 -35 -67 -13 -31 -13
-30 -15 36 -1 47 1 63 8 53 6 -10 10 -11 10 -2z m-80 -160 c0 6 5 12 10 12 13
0 13 -33 -1 -47 -6 -6 -15 -26 -19 -45 -6 -27 -8 -21 -7 30 0 35 4 57 9 50 6
-10 8 -10 8 0z m43 -31 c-3 -20 -10 -37 -14 -37 -5 0 -9 -18 -9 -40 0 -30 -4
-40 -16 -40 -13 0 -15 -8 -10 -42 4 -31 3 -37 -3 -23 -15 31 -13 81 4 95 8 7
15 26 15 42 0 17 4 27 10 23 6 -3 10 3 10 14 0 22 11 54 16 48 2 -1 1 -20 -3
-40z m28 -207 c24 -51 50 -82 107 -127 l23 -18 -45 -1 c-41 -2 -45 0 -36 16
13 24 13 30 0 30 -5 0 -10 -8 -10 -17 0 -15 -3 -14 -22 4 -15 16 -22 36 -24
69 0 25 -6 49 -12 53 -5 3 -12 17 -15 31 -4 24 -4 24 -6 -3 -1 -38 -21 -24
-21 14 0 18 4 28 10 24 6 -4 10 6 11 22 1 25 2 25 8 -7 4 -19 19 -60 32 -90z
m1083 21 c82 -54 120 -135 114 -243 -4 -91 -31 -148 -106 -229 -67 -73 -156
-126 -282 -170 -86 -30 -106 -33 -210 -34 -108 0 -119 2 -175 30 -77 38 -105
79 -105 150 0 67 36 139 102 203 49 48 55 51 131 62 184 27 348 103 452 209
22 22 42 41 45 41 3 0 18 -9 34 -19z m-1079 -141 c3 -5 1 -10 -4 -10 -6 0 -11
5 -11 10 0 6 2 10 4 10 3 0 8 -4 11 -10z m22 -26 c-3 -3 -12 -4 -19 -1 -8 3
-5 6 6 6 11 1 17 -2 13 -5z m228 -65 c-3 -4 -19 -3 -36 3 -23 8 -33 7 -42 -2
-9 -10 -7 -11 9 -6 14 4 21 2 21 -8 0 -8 -6 -12 -14 -9 -15 6 -16 2 -7 -21 5
-13 9 -14 20 -5 8 6 14 18 14 25 0 8 5 14 10 14 13 0 13 -17 0 -25 -6 -4 -18
-24 -27 -46 -8 -21 -19 -39 -24 -39 -5 0 -9 -21 -9 -47 0 -25 -2 -44 -5 -41
-9 9 -12 128 -4 134 5 3 9 13 9 22 0 13 -2 14 -9 4 -5 -9 -8 -2 -7 20 1 18 8
38 16 45 13 11 13 12 -2 13 -10 0 -18 4 -18 9 0 5 25 0 55 -11 30 -12 52 -24
50 -29z m-995 -109 c13 -9 13 -10 0 -9 -8 0 -24 4 -35 9 l-20 9 20 0 c11 0 27
-4 35 -9z m6 -23 c3 -3 4 -12 2 -19 -4 -19 -84 -3 -92 19 -5 13 0 15 39 10 25
-2 48 -7 51 -10z m242 -87 c4 -41 17 -52 52 -45 17 4 21 3 11 -4 -11 -7 -8
-10 10 -16 13 -4 27 -12 30 -17 7 -11 39 0 39 14 0 5 -10 6 -21 3 -14 -5 -19
-4 -15 4 5 7 1 9 -11 4 -15 -5 -16 -3 -6 7 10 10 20 11 40 4 23 -8 28 -15 28
-44 0 -34 1 -35 41 -34 31 0 40 -3 40 -17 0 -9 -6 -15 -13 -12 -7 3 -13 9 -13
14 0 5 -8 9 -17 9 -12 0 -4 -12 26 -37 24 -21 55 -48 68 -60 25 -24 29 -22 13
8 -8 14 -7 19 3 19 8 0 14 -14 15 -37 l3 -36 -43 38 c-24 21 -45 42 -48 45 -9
12 -185 126 -212 138 -16 6 -28 18 -28 27 0 8 -18 24 -40 35 -45 23 -50 24
-50 10 0 -5 4 -10 9 -10 19 0 64 -21 58 -26 -3 -4 -32 4 -63 17 -55 23 -56 24
-28 30 16 3 49 6 74 5 44 -1 45 -2 48 -36z m662 -110 c0 -5 -4 -10 -10 -10 -5
0 -10 5 -10 10 0 6 5 10 10 10 6 0 10 -4 10 -10z m3 -42 c3 -12 2 -29 -3 -38
-6 -11 -5 -21 2 -28 8 -8 6 -15 -6 -27 -15 -15 -16 -12 -13 49 2 67 10 84 20
44z m1075 -12 c105 -120 75 -307 -72 -443 -68 -63 -202 -133 -306 -159 -118
-30 -325 -6 -386 44 -85 71 -75 201 24 305 35 36 38 37 109 37 186 0 439 99
558 218 17 16 33 30 36 31 4 1 20 -14 37 -33z m-1045 -71 c-1 -19 3 -35 8 -35
5 0 9 8 9 18 1 13 5 11 21 -11 12 -15 42 -40 68 -55 l47 -27 -23 -34 c-15 -23
-23 -28 -23 -17 0 10 7 25 16 34 16 15 15 17 -9 27 -14 6 -37 20 -51 32 -13
12 -28 18 -32 15 -4 -4 -4 -2 0 5 5 9 -4 11 -34 7 l-41 -5 16 25 c11 16 14 33
9 52 -5 24 -4 27 7 17 7 -7 13 -29 12 -48z m-298 -70 c-4 -37 -12 -41 -34 -14
-27 32 -26 39 8 39 25 0 29 -3 26 -25z m357 -12 c23 -21 23 -43 1 -43 -14 0
-15 2 -4 9 10 7 10 10 1 16 -7 4 -16 2 -20 -5 -5 -7 -7 -2 -7 14 0 30 4 32 29
9z m58 -33 c0 -5 -7 -10 -16 -10 -8 0 -12 5 -9 10 3 6 10 10 16 10 5 0 9 -4 9
-10z m-336 -50 c-1 -43 4 -60 21 -60 12 0 40 -59 32 -66 -3 -3 -84 104 -101
134 -11 18 1 30 27 28 19 -1 22 -6 21 -36z m80 -65 c10 -40 -5 -51 -20 -15
-17 40 -17 40 0 40 8 0 17 -11 20 -25z m220 -21 c-24 -80 -13 -241 17 -260 28
-17 0 -24 -83 -22 l-91 3 -23 69 c-13 37 -28 74 -34 80 -7 9 -5 13 5 13 8 0
19 -13 24 -30 9 -25 13 -27 25 -15 7 8 16 23 19 34 2 10 5 2 6 -19 1 -23 -3
-36 -9 -32 -17 10 -23 -22 -11 -62 l10 -38 -5 45 c-4 33 -2 41 5 30 6 -8 11
-27 11 -42 0 -26 3 -28 45 -28 l46 0 -6 38 -5 37 14 -40 14 -40 -5 45 c-3 34
-2 41 6 30 12 -17 14 -10 5 14 -5 12 -10 14 -19 6 -11 -9 -13 2 -13 57 0 54 2
61 8 35 14 -59 22 -49 16 18 -5 48 -4 61 4 50 8 -12 9 -8 4 15 -10 43 -11 42
-22 -7 l-10 -43 2 50 c1 50 2 51 32 51 l31 0 -13 -42z m-217 -69 c-1 -25 -3
-31 -10 -20 -7 13 -2 55 8 55 2 0 3 -16 2 -35z m63 -54 c0 -17 -18 -21 -24 -6
-3 9 0 15 9 15 8 0 15 -4 15 -9z"/>
<path d="M2702 5057 c-45 -47 -11 -127 53 -127 38 0 75 37 75 76 0 68 -81 101
-128 51z"/>
<path d="M2927 5069 c-46 -27 -41 -105 9 -128 16 -7 100 -11 233 -11 196 0
210 1 235 21 33 26 36 79 6 109 -19 19 -33 20 -242 20 -137 0 -230 -5 -241
-11z"/>
<path d="M3788 3673 c7 -3 16 -2 19 1 4 3 -2 6 -13 5 -11 0 -14 -3 -6 -6z"/>
<path d="M3304 2927 c3 -10 6 -23 6 -28 0 -5 5 -9 10 -9 14 0 12 13 -6 36 -14
17 -15 17 -10 1z"/>
<path d="M3360 2871 c0 -6 4 -13 10 -16 6 -3 7 1 4 9 -7 18 -14 21 -14 7z"/>
<path d="M3467 2703 c-4 -3 -7 -11 -7 -17 0 -6 5 -5 12 2 6 6 9 14 7 17 -3 3
-9 2 -12 -2z"/>
<path d="M2495 2640 c11 -5 29 -8 40 -8 16 0 15 2 -5 8 -34 11 -60 11 -35 0z"/>
<path d="M2765 2580 c4 -6 11 -8 16 -5 14 9 11 15 -7 15 -8 0 -12 -5 -9 -10z"/>
<path d="M2925 2460 c-3 -5 1 -10 9 -10 9 0 16 5 16 10 0 6 -4 10 -9 10 -6 0
-13 -4 -16 -10z"/>
<path d="M3167 2254 c3 -7 9 -14 14 -14 14 0 10 17 -5 23 -10 4 -13 1 -9 -9z"/>
<path d="M3230 2183 c1 -16 30 -46 37 -38 5 4 2 10 -4 12 -7 3 -13 11 -13 19
0 8 -4 14 -10 14 -5 0 -10 -3 -10 -7z"/>
<path d="M1284 4912 c-9 -8 -13 -21 -10 -29 3 -8 6 -23 6 -32 0 -15 9 -17 68
-16 37 1 55 0 40 -2 -16 -2 -28 -8 -28 -13 0 -5 -8 -7 -17 -3 -10 3 -15 3 -12
-1 10 -11 68 -19 122 -17 27 1 47 -3 47 -9 0 -5 -12 -10 -27 -11 l-28 -1 25
-7 c15 -4 28 -3 33 3 5 8 10 6 16 -3 6 -10 32 -15 80 -17 57 -1 73 1 81 15 9
15 9 15 10 -1 0 -11 6 -15 20 -11 20 5 20 6 -3 37 -13 17 -23 38 -22 46 2 11
-8 15 -39 15 -27 0 -40 4 -39 12 2 7 -4 10 -12 7 -8 -3 -20 -2 -26 2 -7 4 -39
6 -71 5 -36 -2 -58 2 -58 8 0 6 10 11 23 12 21 0 21 1 -3 11 -40 17 -159 17
-176 0z m289 -48 c31 -6 27 -24 -6 -24 -18 0 -19 2 -7 11 11 8 7 9 -19 5 -18
-3 -42 -6 -53 -6 -10 0 -17 -4 -13 -9 3 -5 -3 -11 -12 -14 -10 -2 -1 -2 20 0
29 4 37 1 37 -11 0 -9 -4 -16 -10 -16 -5 0 -10 4 -10 9 0 5 -15 5 -35 1 -20
-4 -48 -5 -63 -1 l-27 7 33 7 c23 5 32 12 32 27 0 17 6 20 53 19 28 0 64 -3
80 -5z"/>
<path d="M4710 4904 c14 -37 12 -48 -10 -62 -17 -10 -28 -9 -71 9 -40 17 -54
20 -72 11 -21 -11 -21 -11 4 -6 15 3 29 2 32 -3 3 -5 -25 -9 -61 -9 -139 -1
-141 -2 -135 -26 4 -22 4 -22 -12 2 -10 15 -14 18 -11 7 4 -11 9 -30 12 -43 5
-20 13 -24 48 -25 l41 -2 -35 -6 c-19 -4 -39 -4 -44 1 -6 4 -15 8 -20 8 -6 0
-3 -7 8 -15 12 -9 30 -12 49 -8 21 4 28 3 23 -5 -5 -8 1 -12 14 -12 12 0 19 3
17 8 -10 16 21 27 82 29 40 1 67 6 72 14 4 8 11 11 14 7 4 -3 31 3 60 13 30
10 63 19 74 19 11 0 23 5 27 12 5 7 2 9 -9 5 -35 -13 -90 -20 -83 -9 4 6 -3 9
-16 6 -21 -4 -22 -4 -3 5 11 5 39 10 62 10 50 1 58 11 43 54 -10 32 -13 34
-60 35 -48 1 -49 1 -40 -24z m-20 -88 l34 -13 -32 -11 c-18 -6 -32 -7 -32 -2
0 5 8 11 18 13 10 3 6 5 -10 6 -16 0 -28 6 -28 11 0 12 6 12 50 -4z"/>
<path d="M4817 4910 c3 -11 10 -20 15 -20 5 0 7 -10 3 -22 -5 -21 -5 -21 6 -4
9 14 8 24 -2 42 -15 29 -29 32 -22 4z"/>
<path d="M4666 4911 c-4 -7 -13 -10 -20 -8 -6 3 -25 -1 -41 -8 -26 -12 -27
-13 -8 -14 12 -1 29 -8 37 -17 17 -17 57 -16 63 2 2 7 -6 10 -24 7 -26 -4 -27
-3 -9 11 10 8 16 20 14 27 -4 11 -6 11 -12 0z"/>
<path d="M4520 4869 c0 -5 5 -7 10 -4 6 3 10 8 10 11 0 2 -4 4 -10 4 -5 0 -10
-5 -10 -11z"/>
<path d="M1628 4863 c7 -3 16 -2 19 1 4 3 -2 6 -13 5 -11 0 -14 -3 -6 -6z"/>
<path d="M4438 4853 c7 -3 16 -2 19 1 4 3 -2 6 -13 5 -11 0 -14 -3 -6 -6z"/>
<path d="M1710 4825 c0 -24 9 -29 48 -28 17 1 16 -2 -12 -31 -16 -18 -34 -26
-57 -27 -19 0 -28 -3 -21 -6 6 -2 9 -9 6 -15 -4 -6 1 -6 13 1 11 5 33 9 49 8
20 -1 29 3 29 13 0 8 4 21 8 28 10 15 -1 54 -13 47 -5 -3 -15 3 -22 15 -17 27
-28 25 -28 -5z"/>
<path d="M4354 4775 c-3 -8 -4 -20 -1 -27 4 -8 6 -6 6 5 1 9 6 17 11 17 6 0
10 5 10 10 0 15 -20 12 -26 -5z"/>
<path d="M1627 4729 c7 -7 15 -10 18 -7 3 3 -2 9 -12 12 -14 6 -15 5 -6 -5z"/>
<path d="M4508 4733 c7 -3 16 -2 19 1 4 3 -2 6 -13 5 -11 0 -14 -3 -6 -6z"/>
<path d="M4370 4726 c0 -2 7 -7 16 -10 8 -3 12 -2 9 4 -6 10 -25 14 -25 6z"/>
<path d="M4418 4713 c7 -3 16 -2 19 1 4 3 -2 6 -13 5 -11 0 -14 -3 -6 -6z"/>
<path d="M1290 4503 c-22 -8 -50 -34 -50 -47 0 -6 4 -5 9 3 6 9 11 10 15 2 4
-6 22 -10 39 -10 31 2 31 2 4 6 -16 3 -25 9 -21 15 4 7 2 8 -4 4 -7 -4 -12 -2
-12 3 0 6 6 11 14 11 8 0 18 5 21 10 7 11 7 11 -15 3z"/>
<path d="M1680 4502 c0 -12 35 -52 45 -52 5 0 -2 11 -15 25 -26 28 -17 34 12
8 10 -9 18 -11 18 -5 0 12 -31 32 -49 32 -6 0 -11 -4 -11 -8z"/>
<path d="M4438 4503 c7 -3 16 -2 19 1 4 3 -2 6 -13 5 -11 0 -14 -3 -6 -6z"/>
<path d="M4805 4500 c-4 -6 5 -10 19 -10 17 0 26 -6 26 -15 0 -12 -4 -13 -19
-5 -23 12 -441 14 -441 3 0 -5 98 -7 217 -5 147 2 214 -1 208 -7 -6 -6 -81
-12 -170 -14 -139 -3 -135 -3 33 -2 105 0 192 -3 192 -7 0 -4 -7 -8 -16 -8 -8
0 -12 -4 -9 -10 3 -5 1 -10 -4 -10 -6 0 -11 5 -11 10 0 6 -8 10 -17 10 -15 0
-16 -2 -3 -10 10 -6 -48 -10 -174 -10 -104 0 -187 -2 -185 -5 3 -2 94 -5 204
-6 173 -1 197 -3 180 -15 -10 -8 -14 -14 -8 -14 6 0 16 7 23 15 7 8 9 15 6 15
-4 0 0 7 8 16 18 18 20 30 6 39 -6 4 -8 10 -5 15 3 5 -5 16 -17 24 -26 19 -35
20 -43 6z"/>
<path d="M1322 4478 c-9 -4 69 -6 173 -6 203 2 193 6 -23 10 -73 2 -141 0
-150 -4z"/>
<path d="M4357 4451 c-2 -10 -1 -24 3 -30 4 -7 7 1 8 18 1 35 -3 40 -11 12z"/>
<path d="M1518 4453 c-93 -2 -168 -7 -168 -11 0 -9 336 1 346 11 4 4 3 6 -2 5
-5 -1 -84 -4 -176 -5z"/>
<path d="M1740 4440 c0 -5 5 -10 10 -10 6 0 10 5 10 10 0 6 -4 10 -10 10 -5 0
-10 -4 -10 -10z"/>
<path d="M1240 4435 c0 -24 32 -55 58 -55 21 0 24 2 12 10 -10 6 51 10 180 12
l195 3 -202 3 c-153 1 -203 -1 -206 -10 -3 -8 -6 -6 -6 5 -1 13 8 17 37 18
l37 2 -35 6 c-20 4 -38 2 -42 -4 -5 -6 -12 -5 -18 5 -5 8 -10 10 -10 5z"/>
<path d="M1689 4428 c-12 -8 -12 -9 1 -5 22 6 42 -17 27 -32 -17 -17 -31 -13
-17 4 7 9 8 15 2 15 -8 0 -22 -22 -22 -36 0 -9 27 -3 44 9 10 7 15 19 11 29
-9 22 -28 29 -46 16z"/>
<path d="M4395 4430 c-8 -13 3 -30 18 -29 8 0 7 3 -2 6 -10 4 -10 7 -1 13 8 5
9 10 2 14 -6 3 -13 2 -17 -4z"/>
<path d="M4435 4430 c-4 -6 6 -10 22 -10 22 0 25 2 13 10 -19 12 -27 12 -35 0z"/>
<path d="M4418 4383 c6 -2 18 -2 25 0 6 3 1 5 -13 5 -14 0 -19 -2 -12 -5z"/>
<path d="M1710 4151 c20 -6 13 -9 -35 -15 -33 -4 -80 -9 -105 -11 -25 -2 -46
-8 -48 -12 -11 -34 -53 -44 -174 -44 -11 0 -15 -6 -11 -15 3 -9 -1 -14 -12
-14 -9 0 -13 5 -10 11 4 6 -2 5 -13 -2 -40 -25 -27 -109 16 -109 15 0 15 2 2
10 -13 8 -12 10 3 10 9 0 17 -4 17 -9 0 -5 7 -12 16 -15 13 -5 14 -3 6 6 -8
10 -4 13 15 15 20 1 23 -1 12 -9 -10 -7 -7 -8 11 -4 14 3 30 6 37 6 6 0 10 11
8 25 -1 17 3 25 14 25 9 0 23 5 31 11 12 8 7 9 -17 6 -18 -2 -33 0 -33 5 0 4
5 8 10 8 6 0 10 4 10 9 0 5 -26 8 -57 5 -42 -3 -51 -1 -33 5 38 13 97 13 112
-1 8 -8 40 -13 78 -13 36 0 88 -4 115 -8 36 -5 44 -4 30 3 -19 9 -18 10 5 9
46 -2 50 1 50 30 0 17 5 33 10 36 19 12 -1 25 -27 19 -18 -5 -24 -3 -19 5 4 6
15 11 24 11 15 0 15 2 2 10 -8 5 -26 9 -40 9 l-25 -1 25 -7z m-12 -28 c-10 -2
-26 -2 -35 0 -10 3 -2 5 17 5 19 0 27 -2 18 -5z m-178 -63 c0 -12 -8 -12 -35
0 -18 8 -17 9 8 9 15 1 27 -3 27 -9z"/>
<path d="M4390 4149 c0 -13 24 -23 28 -11 2 8 11 8 29 1 15 -5 30 -6 34 -2 5
5 1 10 -9 11 -9 1 -32 3 -49 5 -18 2 -33 0 -33 -4z"/>
<path d="M4368 4119 c-7 -4 -9 -11 -5 -16 5 -4 12 -1 17 7 6 8 10 13 10 10 1
-3 3 -25 6 -50 3 -35 2 -41 -6 -27 -6 9 -8 27 -5 40 5 19 4 20 -5 5 -12 -19
-10 -49 3 -59 5 -3 30 -2 55 3 56 10 202 0 202 -15 0 -6 -20 -7 -52 -4 -60 7
-48 -8 14 -18 21 -4 38 -13 38 -20 0 -16 29 -22 102 -21 32 1 58 -2 58 -6 0
-5 5 -8 10 -8 6 0 8 10 5 23 -6 24 9 56 21 44 4 -3 1 -13 -5 -21 -8 -9 -8 -16
-2 -20 16 -10 23 30 10 57 -13 28 -35 42 -44 27 -4 -6 -32 -10 -63 -9 -42 1
-51 3 -32 9 14 4 39 6 55 4 17 -2 0 4 -36 15 -36 10 -72 22 -79 26 -36 22
-245 41 -272 24z m295 -41 l38 -15 -39 -11 c-50 -15 -104 -16 -82 -2 13 8 12
10 -2 10 -10 0 -18 4 -18 9 0 4 11 6 25 3 14 -2 22 -8 19 -13 -6 -10 17 -12
41 -3 23 9 0 24 -37 24 -15 0 -30 5 -34 11 -8 14 33 8 89 -13z m148 -65 c-9
-16 -10 -14 -11 12 0 21 3 26 11 18 8 -8 8 -16 0 -30z"/>
<path d="M1465 4095 c-16 -7 -23 -14 -14 -14 8 -1 24 6 35 14 24 18 18 18 -21
0z"/>
<path d="M4345 4081 c-3 -5 -1 -12 5 -16 5 -3 10 1 10 9 0 18 -6 21 -15 7z"/>
<path d="M1510 4021 c0 -10 19 -25 25 -20 1 2 -3 10 -11 17 -8 7 -14 8 -14 3z"/>
<path d="M1553 4018 c18 -6 37 -7 49 -1 15 7 9 9 -29 10 -44 1 -46 0 -20 -9z"/>
<path d="M4498 4023 c6 -2 18 -2 25 0 6 3 1 5 -13 5 -14 0 -19 -2 -12 -5z"/>
<path d="M1630 4009 c0 -5 5 -7 10 -4 6 3 10 8 10 11 0 2 -4 4 -10 4 -5 0 -10
-5 -10 -11z"/>
<path d="M4471 4006 c2 -2 20 -6 39 -10 25 -4 31 -3 20 4 -14 9 -69 15 -59 6z"/>
<path d="M1546 3991 c-4 -5 3 -7 14 -4 23 6 26 13 6 13 -8 0 -17 -4 -20 -9z"/>
<path d="M1475 3981 c-10 -17 9 -20 30 -5 18 14 18 14 -2 14 -12 0 -24 -4 -28
-9z"/>
<path d="M4608 3973 c7 -3 16 -2 19 1 4 3 -2 6 -13 5 -11 0 -14 -3 -6 -6z"/>
<path d="M4718 3943 c7 -3 16 -2 19 1 4 3 -2 6 -13 5 -11 0 -14 -3 -6 -6z"/>
</g>
</svg>
