<?xml version="1.0" standalone="no"?>
<!DOCTYPE svg PUBLIC "-//W3C//DTD SVG 20010904//EN"
 "http://www.w3.org/TR/2001/REC-SVG-20010904/DTD/svg10.dtd">
<svg version="1.0" xmlns="http://www.w3.org/2000/svg"
 width="64" height="64" viewBox="0 0 512.000000 419.000000"
 preserveAspectRatio="xMidYMid meet">

<g transform="translate(0.000000,419.000000) scale(0.100000,-0.100000)"
fill="#eb83f8" stroke="none">
<path d="M3643 4182 c-33 -5 -60 -45 -67 -99 -14 -102 -13 -100 -62 -108 -25
-3 -64 -13 -86 -21 -23 -8 -42 -13 -43 -12 -1 2 -23 31 -49 65 -81 107 -101
108 -226 12 -127 -98 -132 -118 -54 -220 l44 -57 -44 -65 c-24 -36 -46 -71
-48 -78 -3 -9 -21 -9 -86 0 -69 10 -85 10 -110 -3 -37 -19 -41 -29 -58 -146
-18 -127 -18 -127 14 -160 23 -23 41 -29 94 -35 36 -4 69 -10 75 -14 5 -3 14
-33 21 -66 6 -33 14 -72 18 -86 5 -22 -2 -31 -53 -69 -73 -54 -83 -66 -83
-105 0 -34 28 -79 107 -172 58 -68 92 -71 167 -15 28 21 56 41 62 45 7 4 41
-13 77 -37 36 -24 70 -45 75 -47 8 -3 7 -28 0 -80 -19 -136 -5 -151 156 -174
155 -21 177 -6 191 131 l7 62 48 6 c27 4 67 13 89 21 l40 14 51 -69 c78 -105
98 -106 226 -10 125 93 131 121 53 219 -42 52 -42 53 -25 80 9 14 31 50 48 79
27 48 34 53 57 49 14 -3 53 -9 87 -12 55 -7 63 -5 89 17 23 20 30 38 41 104
14 88 17 154 8 179 -10 25 -53 42 -126 50 l-67 7 -6 42 c-4 22 -13 62 -20 88
l-14 48 59 45 c67 52 90 80 90 111 0 22 -104 174 -142 207 -35 30 -78 22 -146
-29 l-62 -46 -59 39 c-33 21 -67 43 -77 49 -16 9 -17 18 -7 89 13 86 6 116
-29 139 -24 15 -206 43 -245 38z m128 -560 c71 -35 122 -84 160 -154 32 -60
34 -68 34 -163 0 -86 -4 -107 -25 -150 -83 -171 -288 -247 -458 -170 -81 36
-162 122 -188 197 -29 83 -25 188 11 266 34 77 112 152 188 181 73 29 212 25
278 -7z"/>
<path d="M2263 4010 c-493 -52 -920 -315 -1164 -717 -64 -105 -103 -191 -149
-327 -30 -92 -40 -111 -61 -117 -408 -118 -635 -283 -778 -566 -150 -295 -147
-652 9 -970 136 -277 368 -474 650 -552 119 -33 110 -45 110 132 l0 153 -68
22 c-178 57 -328 195 -422 387 -55 112 -80 224 -80 360 0 133 18 213 70 320
111 229 333 370 684 436 l112 21 18 96 c85 454 369 796 786 947 128 46 235 65
395 72 l150 6 30 41 c17 23 58 59 91 81 60 39 61 41 68 94 3 30 5 56 3 58 -21
21 -328 36 -454 23z"/>
<path d="M4691 2855 c-17 -24 -61 -63 -96 -87 -81 -53 -83 -69 -17 -147 154
-179 219 -356 229 -617 7 -167 -6 -272 -48 -399 -71 -212 -232 -378 -468 -481
l-76 -33 -3 -160 c-1 -96 1 -161 7 -161 22 0 204 75 291 121 384 201 585 531
607 994 14 298 -72 621 -222 831 -49 68 -152 184 -164 184 -4 0 -22 -20 -40
-45z"/>
<path d="M2789 2077 c-119 -27 -186 -107 -177 -208 3 -28 14 -63 25 -77 34
-47 107 -88 195 -111 92 -23 146 -48 161 -72 18 -29 -1 -69 -40 -85 -66 -28
-144 6 -161 69 l-8 32 -95 -4 c-52 -1 -97 -6 -100 -10 -13 -12 18 -102 48
-139 49 -63 110 -86 235 -90 166 -6 260 34 310 131 26 51 28 138 6 182 -38 71
-94 104 -248 145 -128 33 -130 34 -130 64 0 60 91 77 141 27 16 -16 29 -37 29
-47 0 -15 8 -16 61 -10 34 3 80 6 102 6 l40 0 -6 36 c-10 60 -52 113 -112 140
-66 31 -192 40 -276 21z"/>
<path d="M1240 1736 l0 -346 105 0 105 0 0 140 c0 153 1 155 59 126 19 -10 47
-51 95 -140 l67 -126 120 0 119 0 -46 93 c-61 121 -98 173 -137 194 l-32 16
28 8 c40 11 94 55 114 92 34 66 17 183 -34 229 -49 45 -88 51 -330 56 l-233 4
0 -346z m359 193 c34 -12 47 -42 37 -84 -8 -33 -41 -45 -122 -45 l-64 0 0 70
0 70 59 0 c32 0 72 -5 90 -11z"/>
<path d="M1957 2073 c-4 -3 -7 -159 -7 -345 l0 -338 290 0 290 0 0 75 0 75
-180 0 -180 0 0 70 0 70 165 0 165 0 0 70 0 70 -165 0 -165 0 0 55 0 55 175 0
175 0 0 75 0 75 -278 0 c-153 0 -282 -3 -285 -7z"/>
<path d="M3240 1995 l0 -85 105 0 105 0 0 -260 0 -260 110 0 110 0 0 260 0
260 105 0 105 0 0 85 0 85 -320 0 -320 0 0 -85z"/>
<path d="M1595 1123 c-71 -185 -415 -1105 -415 -1113 0 -6 62 -10 175 -10
l174 0 29 92 29 93 199 3 200 2 29 -92 30 -93 178 -3 c164 -2 177 -1 176 15 0
10 -94 266 -207 568 l-207 550 -191 3 c-176 2 -192 1 -199 -15z m255 -483 c29
-96 54 -180 57 -187 4 -10 -21 -13 -116 -13 -77 0 -121 4 -121 10 0 26 115
379 121 373 3 -5 30 -87 59 -183z"/>
<path d="M2492 573 l3 -568 173 -3 172 -2 0 210 0 210 98 0 c218 0 342 34 420
113 61 62 85 125 90 233 7 152 -38 254 -139 316 -79 49 -150 58 -502 58 l-317
0 2 -567z m516 326 c63 -13 93 -44 99 -102 11 -96 -43 -138 -181 -140 l-81 -2
-3 128 -3 127 60 0 c33 0 82 -5 109 -11z"/>
<path d="M3595 1128 c-3 -7 -4 -263 -3 -568 l3 -555 175 0 175 0 0 565 0 565
-173 3 c-132 2 -174 0 -177 -10z"/>
</g>
</svg>
